<svg width="1451" height="2110" viewBox="0 0 1451 2110" fill="none" xmlns="http://www.w3.org/2000/svg">
<path d="M0.789307 2110C0.789307 1964.71 23.0674 1833.95 67.6236 1717.71C114.117 1599.54 194.512 1487.18 308.808 1380.63C425.042 1274.09 585.831 1166.57 791.177 1058.09C886.101 1007.72 962.621 961.226 1020.74 918.607C1078.85 875.988 1121.47 830.463 1148.6 782.032C1175.72 733.602 1189.28 674.516 1189.28 604.776C1189.28 533.099 1173.78 471.108 1142.78 418.803C1111.79 364.561 1065.29 321.942 1003.3 290.946C943.249 259.95 867.697 244.453 776.648 244.453C631.356 244.453 516.091 282.228 430.853 357.78C347.553 433.332 295.248 540.848 273.938 680.328L12.4127 662.893C35.6594 461.422 113.148 300.632 244.88 180.524C376.611 60.4163 553.867 0.362305 776.648 0.362305C918.065 0.362305 1039.14 25.5462 1139.88 75.914C1240.61 126.282 1317.13 196.991 1369.44 288.04C1423.68 377.152 1450.8 480.794 1450.8 598.965C1450.8 703.575 1433.37 794.624 1398.5 872.113C1363.63 947.665 1304.54 1018.37 1221.24 1084.24C1139.88 1150.11 1027.52 1220.81 884.164 1296.37C698.19 1395.16 556.773 1494.93 459.912 1595.67C364.988 1696.4 314.62 1786.48 308.808 1865.91H1450.8V2110H0.789307Z" fill="currentColor"/>
</svg>
